PathFileType	4	(X/Y/Z)	D:\luciana\demolition.trc
DataRate	CameraRate	NumFrames	NumMarkers	Units	OrigDataRate	OrigDataStartFrame	OrigNumFrames
250.00	250.00	14	18	mm	250.00	599	1806
Frame#	Time	pelvisR			Trunk1			Trunk2			Trunk3			C7			shoulder			upperArm1			upperArm2			upperArm3			elbow			forearm1			forearm2			forearm3			wrist1			wrist2			wrist3			Object			Hand			
		X1	Y1	Z1	X2	Y2	Z2	X3	Y3	Z3	X4	Y4	Z4	X5	Y5	Z5	X6	Y6	Z6	X7	Y7	Z7	X8	Y8	Z8	X9	Y9	Z9	X10	Y10	Z10	X11	Y11	Z11	X12	Y12	Z12	X13	Y13	Z13	X14	Y14	Z14	X15	Y15	Z15	X16	Y16	Z16	X17	Y17	Z17	X18	Y18	Z18	

598	2.392000	1706.000805	657.337248	693.687260	1481.556654	876.336753	610.961080	1546.597838	824.669957	606.963873	1455.455542	784.270227	608.110964	1526.042223	1138.462067	785.569847	1716.440678	1069.016099	754.165113	1814.121008	926.343560	733.991325	1846.799970	919.582009	808.923602	1786.077023	896.047831	849.499106	1848.646879	787.023246	802.563131	1923.642635	736.027837	799.891174	1870.895863	701.129436	747.476220	1922.898054	808.965683	779.020786	2035.266638	729.139805	706.864476	1992.661953	702.623188	644.928813	2022.528887	803.075850	708.910942	2104.098320	777.026474	601.146996	2092.945337	729.301929	610.211432	
599	2.396000	1706.021667	657.333195	693.677425	1481.530070	876.378477	610.995173	1546.758771	824.560106	606.967390	1456.019282	784.114242	608.014524	1526.062727	1138.462782	785.640180	1716.455102	1069.060326	754.115462	1814.124584	926.541269	733.660877	1846.883655	919.632554	808.614254	1786.210537	896.047771	849.218965	1848.803520	787.103176	802.115083	1923.671126	736.115515	799.453974	1870.971441	701.215208	746.969700	1922.987223	808.982849	778.397918	2035.291195	729.306459	706.088662	1992.526889	702.804208	644.214392	2022.522926	803.212106	708.164275	2103.934050	777.241349	600.271702	2092.781067	729.455292	609.359264	
600	2.400000	1706.048012	657.324672	693.662882	1481.524110	876.416266	611.039758	1546.796322	824.555576	606.974423	1456.213832	784.086883	607.944727	1526.092529	1138.476491	785.702467	1716.455698	1069.113851	754.073262	1814.132214	926.667213	733.364344	1846.970677	919.684350	808.291256	1786.346912	896.047831	848.954737	1848.969817	787.196517	801.689029	1923.702717	736.188293	799.032271	1871.048450	701.302469	746.443689	1923.150182	809.207499	778.113246	2035.305500	729.468286	705.275595	1992.376566	702.968836	643.497705	2022.523403	803.349912	707.441807	2103.751421	777.445197	599.356294	2092.503786	729.516566	608.520269	
601	2.404000	1706.070662	657.325983	693.655372	1481.512189	876.446009	611.091793	1546.807289	824.574590	606.980979	1456.307054	784.124076	607.872009	1526.113749	1138.478279	785.763860	1716.462970	1069.164991	754.018724	1814.138651	926.794291	733.087599	1847.058773	919.744849	807.957888	1786.473155	896.043718	848.673761	1849.135160	787.275195	801.275134	1923.725009	736.272931	798.597217	1871.118426	701.400042	745.912671	1923.316240	809.356511	777.629614	2035.293579	729.624629	704.447567	1992.250443	703.112543	642.747700	2022.525072	803.494036	706.675887	2103.550196	777.649760	598.433733	2092.090130	729.567766	607.815325	
602	2.408000	1706.088781	657.322466	693.653703	1481.501579	876.467824	611.161709	1546.811104	824.601769	606.985688	1456.384778	784.176230	607.819796	1526.126862	1138.481140	785.812020	1716.467977	1069.207668	753.953338	1814.156294	926.924050	732.809663	1847.138166	919.807971	807.641566	1786.586761	896.041751	848.401666	1849.305272	787.340403	800.846338	1923.738241	736.311436	798.106432	1871.194124	701.512039	745.378494	1923.472881	809.473813	777.109981	2035.273314	729.788661	703.648627	1992.137909	703.276992	641.976357	2022.530317	803.649902	705.873132	2103.354931	777.844548	597.509146	2091.954708	729.738295	606.834352	
603	2.412000	1706.100941	657.314062	693.632007	1481.501460	876.494110	611.193359	1546.810865	824.628294	606.997371	1456.450462	784.223437	607.774794	1526.152134	1138.489842	785.872340	1716.465712	1069.255233	753.884912	1814.170241	927.051604	732.549787	1847.212315	919.871628	807.318747	1786.692500	896.045625	848.139465	1849.471450	787.410200	800.396323	1924.931645	736.124158	796.738148	1871.302724	701.622069	744.800925	1923.599720	809.587002	776.572108	2035.283327	729.944766	702.865183	1991.996169	703.437209	641.209304	2022.525787	803.798914	705.080748	2103.155613	778.035879	596.557856	2092.061996	730.046511	605.745614	
604	2.416000	1706.125021	657.311678	693.653941	1481.485128	876.529992	611.247301	1546.797872	824.667156	606.999040	1456.514597	784.262657	607.730389	1526.185870	1138.500690	785.935163	1716.446400	1069.296837	753.803134	1814.190149	927.181780	732.297897	1847.304344	919.941306	807.011008	1786.806226	896.066606	847.878873	1849.632502	787.489951	799.906790	1926.923394	735.966682	794.727087	1871.080160	701.958656	744.875073	1923.702240	809.685111	776.051581	2035.301208	730.107546	702.025056	1991.836905	703.584373	640.492201	2022.508621	803.953171	704.311788	2102.937698	778.227210	595.594049	2091.939926	730.289817	604.774475	
605	2.420000	1706.135988	657.306850	693.637073	1481.450438	876.541018	611.310005	1546.786785	824.704766	606.997430	1456.572056	784.307599	607.674837	1526.224732	1138.497591	785.987616	1716.432095	1069.349527	753.743172	1814.214587	927.312613	732.023656	1847.398996	920.019746	806.731522	1786.933899	896.090925	847.606599	1849.799395	787.581325	799.426675	1926.247001	736.625850	794.741571	1870.320559	702.604234	745.978177	1923.802853	809.774160	775.527358	2035.314560	730.266035	701.178968	1991.695762	703.727245	639.755309	2022.480726	804.113150	703.529596	2102.700710	778.430879	594.616354	2091.681957	730.409265	603.749990	
606	2.424000	1706.137538	657.301307	693.595648	1481.438398	876.574993	611.351430	1546.780229	824.732184	606.999874	1456.620932	784.348249	607.620299	1526.237845	1138.492823	786.065042	1716.430187	1069.392920	753.691196	1814.203739	927.434087	731.776059	1847.492695	920.099258	806.452096	1787.065029	896.116436	847.325385	1849.972010	787.662327	798.979044	1926.062584	736.852527	794.463396	1870.561481	702.604651	745.148480	1923.942327	809.873581	774.994731	2035.315037	730.408430	700.373292	1991.559029	703.902125	638.998270	2022.466183	804.266572	702.735186	2102.476120	778.635204	593.641639	2091.372013	730.496883	602.921426	
607	2.428000	1706.150174	657.294869	693.596959	1481.426597	876.617908	611.402810	1546.769381	824.757397	607.021153	1456.661940	784.394205	607.576191	1526.266098	1138.498545	786.130309	1716.434717	1069.437504	753.633618	1814.208984	927.563190	731.538296	1847.586513	920.174062	806.173325	1787.212014	896.153688	847.055197	1850.164175	787.751794	798.597753	1926.005125	736.967683	794.084311	1871.050715	702.447057	743.834496	1924.103498	809.978843	774.425626	2035.296917	730.534911	699.567616	1991.412878	704.055429	638.240397	2022.465706	804.408967	701.918602	2102.235556	778.820693	592.671514	2091.010571	730.590880	602.089643	
608	2.432000	1706.167102	657.289326	693.598032	1481.408358	876.651764	611.458719	1546.742678	824.790537	607.026160	1456.704378	784.445643	607.514441	1526.293635	1138.496041	786.182463	1716.437221	1069.482088	753.565907	1814.223528	927.681744	731.305242	1847.681403	920.253515	805.871904	1787.385345	896.181583	846.776426	1850.351095	787.844300	798.214912	1926.432252	737.122893	793.212712	1870.446205	702.954173	744.640708	1924.259424	810.094714	773.850560	2035.304546	730.697155	698.721588	1991.274238	704.193473	637.474298	2022.445202	804.553688	701.095819	2101.998568	778.990865	591.671884	2090.942144	730.791450	600.911319	
609	2.436000	1706.175089	657.284081	693.598747	1481.407881	876.680374	611.502290	1546.731710	824.823320	607.018769	1456.755996	784.490466	607.448339	1526.317835	1138.494253	786.245704	1716.432691	1069.530368	753.506362	1814.227819	927.803159	731.053233	1847.788215	920.337558	805.562437	1787.552953	896.207869	846.499145	1850.532651	787.917554	797.784925	1926.501632	737.171888	792.705655	1870.746136	702.902555	743.718505	1924.414515	810.192108	773.297429	2035.337687	730.874419	697.888017	1991.150618	704.348385	636.754930	2022.414923	804.699898	700.295568	2101.752758	779.175520	590.646505	2090.824604	731.024802	599.983931	
610	2.440000	1706.178784	657.290161	693.585038	1481.361866	876.704276	611.559272	1546.712756	824.864507	607.017279	1456.820250	784.524143	607.377291	1526.335478	1138.497233	786.308944	1716.422796	1069.578171	753.463864	1814.240575	927.927256	730.777383	1847.895145	920.418501	805.249810	1787.708402	896.228850	846.232474	1850.701332	787.972569	797.282279	1926.492691	737.226009	792.306900	1871.275425	702.718616	742.346287	1924.548626	810.292125	772.763371	2035.333157	731.027484	697.070360	1990.990877	704.529583	635.943890	2022.392988	804.851651	699.521184	2101.501703	779.357195	589.656472	2090.614319	731.258571	599.047959	
611	2.444000	1706.185818	657.275796	693.587124	1481.317997	876.754284	611.615896	1546.716571	824.922442	607.085526	1456.869364	784.572959	607.313335	1526.376486	1138.491154	786.370337	1716.407776	1069.613457	753.380418	1814.233065	928.038239	730.500281	1847.993135	920.480311	804.922104	1787.851572	896.242380	845.970929	1850.883007	788.033664	796.790063	1926.986217	737.424970	791.376710	1870.682240	703.239381	743.204653	1924.709320	810.431361	772.380114	2035.318851	731.191456	696.236968	1990.797758	704.694331	635.092556	2022.374153	805.006981	698.712826	2101.246834	779.536366	588.672459	2090.413094	731.420636	598.068893	
